<svg version="1.2" xmlns="http://www.w3.org/2000/svg" viewBox="0 0 173 191" width="173" height="191"><defs><linearGradient id="P" gradientUnits="userSpaceOnUse"/><linearGradient id="g1" x2="1" href="#P" gradientTransform="matrix(94.29,105.723,-108.133,96.439,7.514,2.1)"><stop stop-color="#f20d64"/><stop offset="1" stop-color="#a904f1"/></linearGradient></defs><style>.a{fill:url(#g1)}</style><path class="a" d="m56.5 13.3c14.6-8.4 22-12.7 30-12.7 8 0 15.4 4.3 30 12.7l26.2 15.1c14.6 8.5 21.9 12.7 26 19.7 4 6.9 4 15.4 4 32.3v30.2c0 16.9 0 25.4-4 32.3-4.1 7-11.4 11.2-26 19.7l-26.2 15.1c-14.6 8.4-22 12.7-30 12.7-8 0-15.4-4.3-30-12.7l-26.2-15.1c-14.6-8.5-21.9-12.7-26-19.7-4-6.9-4-15.4-4-32.3v-30.2c0-16.9 0-25.4 4-32.3 4.1-7 11.4-11.2 26-19.7z"/></svg>